<?xml version="1.0" encoding="UTF-8"?>
<svg xmlns="http://www.w3.org/2000/svg" xmlns:xlink="http://www.w3.org/1999/xlink" version="1.1" id="圖層_1" x="0px" y="0px" viewBox="0 0 500 500" style="enable-background:new 0 0 500 500;" xml:space="preserve" width="512" height="512">
<g>
	<path d="M81.7,197.1v19.4c0,92.8,75.5,168.3,168.3,168.3s168.3-75.5,168.3-168.3v-19.4L81.7,197.1L81.7,197.1z M179,347.4   c15.3-17.3,41.8-27.9,71-27.9s55.7,10.6,71,27.9c-21.1,11.5-45.3,18-71,18S200.1,358.9,179,347.4z M398.9,216.5   c0,49.5-24.2,93.3-61.5,120.4c-18.7-22.8-51.6-36.8-87.5-36.8c-35.8,0-68.8,14-87.5,36.8c-37.2-27.1-61.5-71-61.5-120.4l0,0H398.9   L398.9,216.5z"/>
	<path d="M250,0C112.1,0,0,112.1,0,250s112.1,250,250,250s250-112.1,250-250S387.9,0,250,0z M250,480.7   C122.8,480.7,19.3,377.2,19.3,250S122.8,19.3,250,19.3S480.7,122.8,480.7,250S377.2,480.7,250,480.7z"/>
	<g>
		<path d="M223.4,109.8c-0.1-4.6-3-6.8-7.6-9.3c-27.9-14.5-59.7-18.6-90.2-10.4c-5.1,1.4-8.2,6.7-6.8,11.8c1.4,5.1,6.7,8.2,11.8,6.8    c15-4,30.4-4.6,45.3-1.9c-17.8,6-34.1,16-47.8,29.7c-3.8,3.8-3.8,9.9,0,13.6c1.9,1.9,4.3,2.8,6.8,2.8s4.9-0.9,6.8-2.8    c19.3-19.3,44.9-30.1,72.1-30.5C219.3,119.5,223.5,115.2,223.4,109.8z"/>
		<path d="M371.8,150.1c3.8-3.8,3.8-9.9,0-13.6c-13.6-13.6-30-23.7-47.8-29.7c14.9-2.7,30.3-2.1,45.3,1.9c5.1,1.4,10.4-1.7,11.8-6.8    c1.4-5.1-1.7-10.4-6.8-11.8c-30.5-8.2-62.2-4.1-90.2,10.4c-4.7,2.4-7.6,4.7-7.6,9.3c-0.1,5.3,4.2,9.7,9.5,9.8    c27.2,0.4,52.8,11.2,72.1,30.5c1.9,1.9,4.3,2.8,6.8,2.8C367.4,152.9,369.9,152,371.8,150.1z"/>
	</g>
</g>
</svg>
