<?xml version="1.0" encoding="UTF-8"?>
<svg width="24" height="24" viewBox="0 0 24 24" fill="none" xmlns="http://www.w3.org/2000/svg">
  <path fill-rule="evenodd" clip-rule="evenodd" d="M11.4892 3.17094C11.1102 1.60969 8.8898 1.60969 8.51078 3.17094C8.26594 4.17949 7.11045 4.65811 6.22416 4.11809C4.85218 3.28212 3.28212 4.85218 4.11809 6.22416C4.65811 7.11045 4.17949 8.26593 3.17094 8.51078C1.60969 8.8898 1.60969 11.1102 3.17094 11.4892C4.17949 11.7341 4.65811 12.8896 4.11809 13.7758C3.28212 15.1478 4.85218 16.7179 6.22416 15.8819C7.11045 15.3419 8.26593 15.8205 8.51078 16.8291C8.8898 18.3903 11.1102 18.3903 11.4892 16.8291C11.7341 15.8205 12.8896 15.3419 13.7758 15.8819C15.1478 16.7179 16.7179 15.1478 15.8819 13.7758C15.3419 12.8896 15.8205 11.7341 16.8291 11.4892C18.3903 11.1102 18.3903 8.8898 16.8291 8.51078C15.8205 8.26594 15.3419 7.11045 15.8819 6.22416C16.7179 4.85218 15.1478 3.28212 13.7758 4.11809C12.8896 4.65811 11.7341 4.17949 11.4892 3.17094ZM10 12C10 13.1046 10.8954 14 12 14C13.1046 14 14 13.1046 14 12C14 10.8954 13.1046 10 12 10C10.8954 10 10 10.8954 10 12Z" fill="currentColor"/>
</svg>
